<svg xmlns="http://www.w3.org/2000/svg" xmlns:xlink="http://www.w3.org/1999/xlink" width="217" zoomAndPan="magnify" viewBox="0 0 162.75 31.5" height="42" preserveAspectRatio="xMidYMid meet" version="1.0"><defs><g/></defs><g fill="#a6a6a6" fill-opacity="0.4"><g transform="translate(21.007626, 12.603906)"><g><path d="M 0.921875 0 L 0.921875 -5.453125 L 1.359375 -5.453125 L 1.359375 0 Z M 0.921875 0 "/></g></g></g><g fill="#a6a6a6" fill-opacity="0.4"><g transform="translate(24.916125, 12.603906)"><g><path d="M 7.203125 0.09375 L 1.328125 -4.890625 L 1.28125 -4.890625 L 1.28125 0 L 0.890625 0 L 0.890625 -5.53125 L 1.078125 -5.53125 L 6.953125 -0.5625 L 7.015625 -0.5625 L 7.015625 -5.453125 L 7.390625 -5.453125 L 7.390625 0.09375 Z M 7.203125 0.09375 "/></g></g></g><g fill="#a6a6a6" fill-opacity="0.4"><g transform="translate(34.811951, 12.603906)"><g><path d="M 0.890625 0 L 0.890625 -5.453125 L 6.421875 -5.453125 L 6.421875 -5.109375 L 1.296875 -5.109375 L 1.296875 -2.84375 L 4.796875 -2.84375 L 4.796875 -2.53125 L 1.296875 -2.53125 L 1.296875 0 Z M 0.890625 0 "/></g></g></g><g fill="#a6a6a6" fill-opacity="0.4"><g transform="translate(43.21289, 12.603906)"><g><path d="M 0.921875 0 L 0.921875 -5.453125 L 1.359375 -5.453125 L 1.359375 0 Z M 0.921875 0 "/></g></g></g><g fill="#a6a6a6" fill-opacity="0.4"><g transform="translate(47.121389, 12.603906)"><g><path d="M 7.203125 0.09375 L 1.328125 -4.890625 L 1.28125 -4.890625 L 1.28125 0 L 0.890625 0 L 0.890625 -5.53125 L 1.078125 -5.53125 L 6.953125 -0.5625 L 7.015625 -0.5625 L 7.015625 -5.453125 L 7.390625 -5.453125 L 7.390625 0.09375 Z M 7.203125 0.09375 "/></g></g></g><g fill="#a6a6a6" fill-opacity="0.4"><g transform="translate(57.017215, 12.603906)"><g><path d="M 0.921875 0 L 0.921875 -5.453125 L 1.359375 -5.453125 L 1.359375 0 Z M 0.921875 0 "/></g></g></g><g fill="#a6a6a6" fill-opacity="0.4"><g transform="translate(60.925714, 12.603906)"><g><path d="M 3.25 0 L 3.25 -5.109375 L 0.359375 -5.109375 L 0.359375 -5.453125 L 6.578125 -5.453125 L 6.578125 -5.109375 L 3.671875 -5.109375 L 3.671875 0 Z M 3.25 0 "/></g></g></g><g fill="#a6a6a6" fill-opacity="0.4"><g transform="translate(69.4668, 12.603906)"><g><path d="M 0.890625 0 L 0.890625 -5.453125 L 6.5625 -5.453125 L 6.5625 -5.109375 L 1.28125 -5.109375 L 1.28125 -2.9375 L 5.34375 -2.9375 L 5.34375 -2.625 L 1.28125 -2.625 L 1.28125 -0.34375 L 6.6875 -0.34375 L 6.6875 0 Z M 0.890625 0 "/></g></g></g><g fill="#a6a6a6" fill-opacity="0.4"><g transform="translate(78.373817, 12.603906)"><g/></g></g><g fill="#a6a6a6" fill-opacity="0.4"><g transform="translate(81.99423, 12.603906)"><g><path d="M 3.25 0 L 3.25 -5.109375 L 0.359375 -5.109375 L 0.359375 -5.453125 L 6.578125 -5.453125 L 6.578125 -5.109375 L 3.671875 -5.109375 L 3.671875 0 Z M 3.25 0 "/></g></g></g><g fill="#a6a6a6" fill-opacity="0.4"><g transform="translate(90.535317, 12.603906)"><g><path d="M 0.890625 0 L 0.890625 -5.453125 L 4.34375 -5.453125 C 4.851562 -5.453125 5.285156 -5.382812 5.640625 -5.25 C 6.003906 -5.125 6.285156 -4.945312 6.484375 -4.71875 C 6.679688 -4.488281 6.78125 -4.21875 6.78125 -3.90625 C 6.78125 -3.644531 6.695312 -3.398438 6.53125 -3.171875 C 6.375 -2.941406 6.148438 -2.753906 5.859375 -2.609375 C 5.578125 -2.460938 5.226562 -2.378906 4.8125 -2.359375 L 6.84375 0 L 6.359375 0 L 4.375 -2.328125 L 1.28125 -2.328125 L 1.28125 0 Z M 1.28125 -2.625 L 4.3125 -2.625 C 4.71875 -2.625 5.070312 -2.675781 5.375 -2.78125 C 5.6875 -2.894531 5.925781 -3.046875 6.09375 -3.234375 C 6.269531 -3.429688 6.359375 -3.648438 6.359375 -3.890625 C 6.359375 -4.253906 6.175781 -4.546875 5.8125 -4.765625 C 5.457031 -4.992188 4.96875 -5.109375 4.34375 -5.109375 L 1.28125 -5.109375 Z M 1.28125 -2.625 "/></g></g></g><g fill="#a6a6a6" fill-opacity="0.4"><g transform="translate(99.520198, 12.603906)"><g><path d="M 0.171875 0 L 3.875 -5.53125 L 3.953125 -5.53125 L 7.671875 0 L 7.203125 0 L 6.46875 -1.125 L 1.328125 -1.125 L 0.59375 0 Z M 1.546875 -1.421875 L 6.265625 -1.421875 L 3.9375 -4.953125 L 3.890625 -4.953125 Z M 1.546875 -1.421875 "/></g></g></g><g fill="#a6a6a6" fill-opacity="0.4"><g transform="translate(108.964447, 12.603906)"><g><path d="M 0.890625 0 L 0.890625 -5.453125 L 4.109375 -5.453125 C 4.648438 -5.453125 5.144531 -5.382812 5.59375 -5.25 C 6.039062 -5.113281 6.425781 -4.921875 6.75 -4.671875 C 7.070312 -4.429688 7.320312 -4.144531 7.5 -3.8125 C 7.675781 -3.488281 7.765625 -3.125 7.765625 -2.71875 C 7.765625 -2.320312 7.675781 -1.957031 7.5 -1.625 C 7.320312 -1.289062 7.070312 -1.003906 6.75 -0.765625 C 6.425781 -0.523438 6.039062 -0.335938 5.59375 -0.203125 C 5.144531 -0.0664062 4.648438 0 4.109375 0 Z M 1.296875 -0.34375 L 4.109375 -0.34375 C 4.554688 -0.34375 4.972656 -0.398438 5.359375 -0.515625 C 5.753906 -0.628906 6.101562 -0.789062 6.40625 -1 C 6.707031 -1.21875 6.941406 -1.472656 7.109375 -1.765625 C 7.273438 -2.054688 7.359375 -2.375 7.359375 -2.71875 C 7.359375 -3.070312 7.273438 -3.390625 7.109375 -3.671875 C 6.941406 -3.960938 6.707031 -4.21875 6.40625 -4.4375 C 6.101562 -4.65625 5.753906 -4.820312 5.359375 -4.9375 C 4.972656 -5.050781 4.554688 -5.109375 4.109375 -5.109375 L 1.296875 -5.109375 Z M 1.296875 -0.34375 "/></g></g></g><g fill="#a6a6a6" fill-opacity="0.4"><g transform="translate(118.961492, 12.603906)"><g><path d="M 0.921875 0 L 0.921875 -5.453125 L 1.359375 -5.453125 L 1.359375 0 Z M 0.921875 0 "/></g></g></g><g fill="#a6a6a6" fill-opacity="0.4"><g transform="translate(122.869991, 12.603906)"><g><path d="M 7.203125 0.09375 L 1.328125 -4.890625 L 1.28125 -4.890625 L 1.28125 0 L 0.890625 0 L 0.890625 -5.53125 L 1.078125 -5.53125 L 6.953125 -0.5625 L 7.015625 -0.5625 L 7.015625 -5.453125 L 7.390625 -5.453125 L 7.390625 0.09375 Z M 7.203125 0.09375 "/></g></g></g><g fill="#a6a6a6" fill-opacity="0.4"><g transform="translate(132.765817, 12.603906)"><g><path d="M 4.453125 0.09375 C 3.921875 0.09375 3.421875 0.03125 2.953125 -0.09375 C 2.484375 -0.226562 2.070312 -0.414062 1.71875 -0.65625 C 1.375 -0.894531 1.101562 -1.179688 0.90625 -1.515625 C 0.707031 -1.859375 0.609375 -2.234375 0.609375 -2.640625 C 0.609375 -3.046875 0.707031 -3.421875 0.90625 -3.765625 C 1.101562 -4.109375 1.378906 -4.410156 1.734375 -4.671875 C 2.097656 -4.941406 2.519531 -5.148438 3 -5.296875 C 3.488281 -5.453125 4.007812 -5.53125 4.5625 -5.53125 C 5.09375 -5.53125 5.546875 -5.492188 5.921875 -5.421875 C 6.304688 -5.347656 6.632812 -5.25 6.90625 -5.125 C 7.175781 -5.007812 7.40625 -4.878906 7.59375 -4.734375 L 7.328125 -4.453125 C 7.160156 -4.585938 6.929688 -4.707031 6.640625 -4.8125 C 6.359375 -4.925781 6.039062 -5.015625 5.6875 -5.078125 C 5.332031 -5.148438 4.960938 -5.1875 4.578125 -5.1875 C 4.078125 -5.1875 3.609375 -5.125 3.171875 -5 C 2.742188 -4.875 2.367188 -4.691406 2.046875 -4.453125 C 1.734375 -4.222656 1.488281 -3.953125 1.3125 -3.640625 C 1.132812 -3.335938 1.046875 -3.003906 1.046875 -2.640625 C 1.046875 -2.265625 1.128906 -1.929688 1.296875 -1.640625 C 1.472656 -1.347656 1.71875 -1.097656 2.03125 -0.890625 C 2.34375 -0.679688 2.707031 -0.519531 3.125 -0.40625 C 3.539062 -0.300781 3.984375 -0.25 4.453125 -0.25 C 4.898438 -0.25 5.316406 -0.300781 5.703125 -0.40625 C 6.097656 -0.507812 6.441406 -0.660156 6.734375 -0.859375 C 7.023438 -1.066406 7.257812 -1.304688 7.4375 -1.578125 C 7.613281 -1.859375 7.710938 -2.175781 7.734375 -2.53125 L 4.703125 -2.53125 L 4.703125 -2.84375 L 9.0625 -2.84375 L 9.0625 -2.53125 L 8.15625 -2.53125 C 8.132812 -2.132812 8.019531 -1.773438 7.8125 -1.453125 C 7.613281 -1.128906 7.347656 -0.851562 7.015625 -0.625 C 6.679688 -0.394531 6.296875 -0.21875 5.859375 -0.09375 C 5.421875 0.03125 4.953125 0.09375 4.453125 0.09375 Z M 4.453125 0.09375 "/></g></g></g><g fill="#a6a6a6" fill-opacity="1"><g transform="translate(20.663539, 12.259818)"><g><path d="M 0.921875 0 L 0.921875 -5.453125 L 1.359375 -5.453125 L 1.359375 0 Z M 0.921875 0 "/></g></g></g><g fill="#a6a6a6" fill-opacity="1"><g transform="translate(24.572038, 12.259818)"><g><path d="M 7.203125 0.09375 L 1.328125 -4.890625 L 1.28125 -4.890625 L 1.28125 0 L 0.890625 0 L 0.890625 -5.53125 L 1.078125 -5.53125 L 6.953125 -0.5625 L 7.015625 -0.5625 L 7.015625 -5.453125 L 7.390625 -5.453125 L 7.390625 0.09375 Z M 7.203125 0.09375 "/></g></g></g><g fill="#a6a6a6" fill-opacity="1"><g transform="translate(34.467863, 12.259818)"><g><path d="M 0.890625 0 L 0.890625 -5.453125 L 6.421875 -5.453125 L 6.421875 -5.109375 L 1.296875 -5.109375 L 1.296875 -2.84375 L 4.796875 -2.84375 L 4.796875 -2.53125 L 1.296875 -2.53125 L 1.296875 0 Z M 0.890625 0 "/></g></g></g><g fill="#a6a6a6" fill-opacity="1"><g transform="translate(42.868803, 12.259818)"><g><path d="M 0.921875 0 L 0.921875 -5.453125 L 1.359375 -5.453125 L 1.359375 0 Z M 0.921875 0 "/></g></g></g><g fill="#a6a6a6" fill-opacity="1"><g transform="translate(46.777302, 12.259818)"><g><path d="M 7.203125 0.09375 L 1.328125 -4.890625 L 1.28125 -4.890625 L 1.28125 0 L 0.890625 0 L 0.890625 -5.53125 L 1.078125 -5.53125 L 6.953125 -0.5625 L 7.015625 -0.5625 L 7.015625 -5.453125 L 7.390625 -5.453125 L 7.390625 0.09375 Z M 7.203125 0.09375 "/></g></g></g><g fill="#a6a6a6" fill-opacity="1"><g transform="translate(56.673128, 12.259818)"><g><path d="M 0.921875 0 L 0.921875 -5.453125 L 1.359375 -5.453125 L 1.359375 0 Z M 0.921875 0 "/></g></g></g><g fill="#a6a6a6" fill-opacity="1"><g transform="translate(60.581626, 12.259818)"><g><path d="M 3.25 0 L 3.25 -5.109375 L 0.359375 -5.109375 L 0.359375 -5.453125 L 6.578125 -5.453125 L 6.578125 -5.109375 L 3.671875 -5.109375 L 3.671875 0 Z M 3.25 0 "/></g></g></g><g fill="#a6a6a6" fill-opacity="1"><g transform="translate(69.122713, 12.259818)"><g><path d="M 0.890625 0 L 0.890625 -5.453125 L 6.5625 -5.453125 L 6.5625 -5.109375 L 1.28125 -5.109375 L 1.28125 -2.9375 L 5.34375 -2.9375 L 5.34375 -2.625 L 1.28125 -2.625 L 1.28125 -0.34375 L 6.6875 -0.34375 L 6.6875 0 Z M 0.890625 0 "/></g></g></g><g fill="#a6a6a6" fill-opacity="1"><g transform="translate(78.029729, 12.259818)"><g/></g></g><g fill="#a6a6a6" fill-opacity="1"><g transform="translate(81.650143, 12.259818)"><g><path d="M 3.25 0 L 3.25 -5.109375 L 0.359375 -5.109375 L 0.359375 -5.453125 L 6.578125 -5.453125 L 6.578125 -5.109375 L 3.671875 -5.109375 L 3.671875 0 Z M 3.25 0 "/></g></g></g><g fill="#a6a6a6" fill-opacity="1"><g transform="translate(90.191229, 12.259818)"><g><path d="M 0.890625 0 L 0.890625 -5.453125 L 4.34375 -5.453125 C 4.851562 -5.453125 5.285156 -5.382812 5.640625 -5.25 C 6.003906 -5.125 6.285156 -4.945312 6.484375 -4.71875 C 6.679688 -4.488281 6.78125 -4.21875 6.78125 -3.90625 C 6.78125 -3.644531 6.695312 -3.398438 6.53125 -3.171875 C 6.375 -2.941406 6.148438 -2.753906 5.859375 -2.609375 C 5.578125 -2.460938 5.226562 -2.378906 4.8125 -2.359375 L 6.84375 0 L 6.359375 0 L 4.375 -2.328125 L 1.28125 -2.328125 L 1.28125 0 Z M 1.28125 -2.625 L 4.3125 -2.625 C 4.71875 -2.625 5.070312 -2.675781 5.375 -2.78125 C 5.6875 -2.894531 5.925781 -3.046875 6.09375 -3.234375 C 6.269531 -3.429688 6.359375 -3.648438 6.359375 -3.890625 C 6.359375 -4.253906 6.175781 -4.546875 5.8125 -4.765625 C 5.457031 -4.992188 4.96875 -5.109375 4.34375 -5.109375 L 1.28125 -5.109375 Z M 1.28125 -2.625 "/></g></g></g><g fill="#a6a6a6" fill-opacity="1"><g transform="translate(99.17611, 12.259818)"><g><path d="M 0.171875 0 L 3.875 -5.53125 L 3.953125 -5.53125 L 7.671875 0 L 7.203125 0 L 6.46875 -1.125 L 1.328125 -1.125 L 0.59375 0 Z M 1.546875 -1.421875 L 6.265625 -1.421875 L 3.9375 -4.953125 L 3.890625 -4.953125 Z M 1.546875 -1.421875 "/></g></g></g><g fill="#a6a6a6" fill-opacity="1"><g transform="translate(108.62036, 12.259818)"><g><path d="M 0.890625 0 L 0.890625 -5.453125 L 4.109375 -5.453125 C 4.648438 -5.453125 5.144531 -5.382812 5.59375 -5.25 C 6.039062 -5.113281 6.425781 -4.921875 6.75 -4.671875 C 7.070312 -4.429688 7.320312 -4.144531 7.5 -3.8125 C 7.675781 -3.488281 7.765625 -3.125 7.765625 -2.71875 C 7.765625 -2.320312 7.675781 -1.957031 7.5 -1.625 C 7.320312 -1.289062 7.070312 -1.003906 6.75 -0.765625 C 6.425781 -0.523438 6.039062 -0.335938 5.59375 -0.203125 C 5.144531 -0.0664062 4.648438 0 4.109375 0 Z M 1.296875 -0.34375 L 4.109375 -0.34375 C 4.554688 -0.34375 4.972656 -0.398438 5.359375 -0.515625 C 5.753906 -0.628906 6.101562 -0.789062 6.40625 -1 C 6.707031 -1.21875 6.941406 -1.472656 7.109375 -1.765625 C 7.273438 -2.054688 7.359375 -2.375 7.359375 -2.71875 C 7.359375 -3.070312 7.273438 -3.390625 7.109375 -3.671875 C 6.941406 -3.960938 6.707031 -4.21875 6.40625 -4.4375 C 6.101562 -4.65625 5.753906 -4.820312 5.359375 -4.9375 C 4.972656 -5.050781 4.554688 -5.109375 4.109375 -5.109375 L 1.296875 -5.109375 Z M 1.296875 -0.34375 "/></g></g></g><g fill="#a6a6a6" fill-opacity="1"><g transform="translate(118.617405, 12.259818)"><g><path d="M 0.921875 0 L 0.921875 -5.453125 L 1.359375 -5.453125 L 1.359375 0 Z M 0.921875 0 "/></g></g></g><g fill="#a6a6a6" fill-opacity="1"><g transform="translate(122.525904, 12.259818)"><g><path d="M 7.203125 0.09375 L 1.328125 -4.890625 L 1.28125 -4.890625 L 1.28125 0 L 0.890625 0 L 0.890625 -5.53125 L 1.078125 -5.53125 L 6.953125 -0.5625 L 7.015625 -0.5625 L 7.015625 -5.453125 L 7.390625 -5.453125 L 7.390625 0.09375 Z M 7.203125 0.09375 "/></g></g></g><g fill="#a6a6a6" fill-opacity="1"><g transform="translate(132.421729, 12.259818)"><g><path d="M 4.453125 0.09375 C 3.921875 0.09375 3.421875 0.03125 2.953125 -0.09375 C 2.484375 -0.226562 2.070312 -0.414062 1.71875 -0.65625 C 1.375 -0.894531 1.101562 -1.179688 0.90625 -1.515625 C 0.707031 -1.859375 0.609375 -2.234375 0.609375 -2.640625 C 0.609375 -3.046875 0.707031 -3.421875 0.90625 -3.765625 C 1.101562 -4.109375 1.378906 -4.410156 1.734375 -4.671875 C 2.097656 -4.941406 2.519531 -5.148438 3 -5.296875 C 3.488281 -5.453125 4.007812 -5.53125 4.5625 -5.53125 C 5.09375 -5.53125 5.546875 -5.492188 5.921875 -5.421875 C 6.304688 -5.347656 6.632812 -5.25 6.90625 -5.125 C 7.175781 -5.007812 7.40625 -4.878906 7.59375 -4.734375 L 7.328125 -4.453125 C 7.160156 -4.585938 6.929688 -4.707031 6.640625 -4.8125 C 6.359375 -4.925781 6.039062 -5.015625 5.6875 -5.078125 C 5.332031 -5.148438 4.960938 -5.1875 4.578125 -5.1875 C 4.078125 -5.1875 3.609375 -5.125 3.171875 -5 C 2.742188 -4.875 2.367188 -4.691406 2.046875 -4.453125 C 1.734375 -4.222656 1.488281 -3.953125 1.3125 -3.640625 C 1.132812 -3.335938 1.046875 -3.003906 1.046875 -2.640625 C 1.046875 -2.265625 1.128906 -1.929688 1.296875 -1.640625 C 1.472656 -1.347656 1.71875 -1.097656 2.03125 -0.890625 C 2.34375 -0.679688 2.707031 -0.519531 3.125 -0.40625 C 3.539062 -0.300781 3.984375 -0.25 4.453125 -0.25 C 4.898438 -0.25 5.316406 -0.300781 5.703125 -0.40625 C 6.097656 -0.507812 6.441406 -0.660156 6.734375 -0.859375 C 7.023438 -1.066406 7.257812 -1.304688 7.4375 -1.578125 C 7.613281 -1.859375 7.710938 -2.175781 7.734375 -2.53125 L 4.703125 -2.53125 L 4.703125 -2.84375 L 9.0625 -2.84375 L 9.0625 -2.53125 L 8.15625 -2.53125 C 8.132812 -2.132812 8.019531 -1.773438 7.8125 -1.453125 C 7.613281 -1.128906 7.347656 -0.851562 7.015625 -0.625 C 6.679688 -0.394531 6.296875 -0.21875 5.859375 -0.09375 C 5.421875 0.03125 4.953125 0.09375 4.453125 0.09375 Z M 4.453125 0.09375 "/></g></g></g><g fill="#a6a6a6" fill-opacity="0.4"><g transform="translate(13.191401, 22.984988)"><g><path d="M 0.890625 0 L 0.890625 -5.453125 L 1.28125 -5.453125 L 1.28125 -2.859375 L 7.015625 -2.859375 L 7.015625 -5.453125 L 7.390625 -5.453125 L 7.390625 0 L 7.015625 0 L 7.015625 -2.5 L 1.28125 -2.5 L 1.28125 0 Z M 0.890625 0 "/></g></g></g><g fill="#a6a6a6" fill-opacity="0.4"><g transform="translate(23.079445, 22.984988)"><g><path d="M 3.484375 0 L 3.484375 -2.21875 L 0.171875 -5.453125 L 0.6875 -5.453125 L 3.671875 -2.5625 L 3.734375 -2.5625 L 6.71875 -5.453125 L 7.234375 -5.453125 L 3.90625 -2.21875 L 3.90625 0 Z M 3.484375 0 "/></g></g></g><g fill="#a6a6a6" fill-opacity="0.4"><g transform="translate(32.0799, 22.984988)"><g><path d="M 0.890625 0 L 0.890625 -5.453125 L 4.65625 -5.453125 C 5.164062 -5.453125 5.597656 -5.375 5.953125 -5.21875 C 6.316406 -5.070312 6.597656 -4.867188 6.796875 -4.609375 C 6.992188 -4.359375 7.09375 -4.070312 7.09375 -3.75 C 7.09375 -3.425781 6.992188 -3.132812 6.796875 -2.875 C 6.597656 -2.613281 6.316406 -2.40625 5.953125 -2.25 C 5.597656 -2.09375 5.164062 -2.015625 4.65625 -2.015625 L 1.296875 -2.015625 L 1.296875 0 Z M 1.296875 -2.359375 L 4.671875 -2.359375 C 5.085938 -2.359375 5.445312 -2.421875 5.75 -2.546875 C 6.050781 -2.671875 6.28125 -2.835938 6.4375 -3.046875 C 6.601562 -3.253906 6.6875 -3.488281 6.6875 -3.75 C 6.6875 -4 6.601562 -4.226562 6.4375 -4.4375 C 6.28125 -4.644531 6.050781 -4.804688 5.75 -4.921875 C 5.445312 -5.035156 5.085938 -5.09375 4.671875 -5.09375 L 1.296875 -5.09375 Z M 1.296875 -2.359375 "/></g></g></g><g fill="#a6a6a6" fill-opacity="0.4"><g transform="translate(41.150427, 22.984988)"><g><path d="M 0.890625 0 L 0.890625 -5.453125 L 6.5625 -5.453125 L 6.5625 -5.109375 L 1.28125 -5.109375 L 1.28125 -2.9375 L 5.34375 -2.9375 L 5.34375 -2.625 L 1.28125 -2.625 L 1.28125 -0.34375 L 6.6875 -0.34375 L 6.6875 0 Z M 0.890625 0 "/></g></g></g><g fill="#a6a6a6" fill-opacity="0.4"><g transform="translate(50.057444, 22.984988)"><g><path d="M 0.890625 0 L 0.890625 -5.453125 L 4.34375 -5.453125 C 4.851562 -5.453125 5.285156 -5.382812 5.640625 -5.25 C 6.003906 -5.125 6.285156 -4.945312 6.484375 -4.71875 C 6.679688 -4.488281 6.78125 -4.21875 6.78125 -3.90625 C 6.78125 -3.644531 6.695312 -3.398438 6.53125 -3.171875 C 6.375 -2.941406 6.148438 -2.753906 5.859375 -2.609375 C 5.578125 -2.460938 5.226562 -2.378906 4.8125 -2.359375 L 6.84375 0 L 6.359375 0 L 4.375 -2.328125 L 1.28125 -2.328125 L 1.28125 0 Z M 1.28125 -2.625 L 4.3125 -2.625 C 4.71875 -2.625 5.070312 -2.675781 5.375 -2.78125 C 5.6875 -2.894531 5.925781 -3.046875 6.09375 -3.234375 C 6.269531 -3.429688 6.359375 -3.648438 6.359375 -3.890625 C 6.359375 -4.253906 6.175781 -4.546875 5.8125 -4.765625 C 5.457031 -4.992188 4.96875 -5.109375 4.34375 -5.109375 L 1.28125 -5.109375 Z M 1.28125 -2.625 "/></g></g></g><g fill="#a6a6a6" fill-opacity="0.4"><g transform="translate(59.042325, 22.984988)"><g><path d="M 0.890625 0 L 0.890625 -5.453125 L 1.296875 -5.453125 L 1.296875 -0.34375 L 6.421875 -0.34375 L 6.421875 0 Z M 0.890625 0 "/></g></g></g><g fill="#a6a6a6" fill-opacity="0.4"><g transform="translate(67.489983, 22.984988)"><g><path d="M 0.171875 0 L 3.875 -5.53125 L 3.953125 -5.53125 L 7.671875 0 L 7.203125 0 L 6.46875 -1.125 L 1.328125 -1.125 L 0.59375 0 Z M 1.546875 -1.421875 L 6.265625 -1.421875 L 3.9375 -4.953125 L 3.890625 -4.953125 Z M 1.546875 -1.421875 "/></g></g></g><g fill="#a6a6a6" fill-opacity="0.4"><g transform="translate(76.934233, 22.984988)"><g><path d="M 7.203125 0.09375 L 1.328125 -4.890625 L 1.28125 -4.890625 L 1.28125 0 L 0.890625 0 L 0.890625 -5.53125 L 1.078125 -5.53125 L 6.953125 -0.5625 L 7.015625 -0.5625 L 7.015625 -5.453125 L 7.390625 -5.453125 L 7.390625 0.09375 Z M 7.203125 0.09375 "/></g></g></g><g fill="#a6a6a6" fill-opacity="0.4"><g transform="translate(86.830058, 22.984988)"><g><path d="M 0.890625 0 L 0.890625 -5.453125 L 6.5625 -5.453125 L 6.5625 -5.109375 L 1.28125 -5.109375 L 1.28125 -2.9375 L 5.34375 -2.9375 L 5.34375 -2.625 L 1.28125 -2.625 L 1.28125 -0.34375 L 6.6875 -0.34375 L 6.6875 0 Z M 0.890625 0 "/></g></g></g><g fill="#a6a6a6" fill-opacity="0.4"><g transform="translate(95.737075, 22.984988)"><g/></g></g><g fill="#a6a6a6" fill-opacity="0.4"><g transform="translate(99.357489, 22.984988)"><g><path d="M 0.890625 0 L 0.890625 -5.453125 L 4.671875 -5.453125 C 5.378906 -5.453125 5.90625 -5.328125 6.25 -5.078125 C 6.59375 -4.828125 6.765625 -4.5 6.765625 -4.09375 C 6.765625 -3.8125 6.648438 -3.550781 6.421875 -3.3125 C 6.203125 -3.082031 5.910156 -2.929688 5.546875 -2.859375 L 5.546875 -2.828125 C 5.867188 -2.785156 6.15625 -2.695312 6.40625 -2.5625 C 6.65625 -2.4375 6.847656 -2.273438 6.984375 -2.078125 C 7.117188 -1.890625 7.1875 -1.6875 7.1875 -1.46875 C 7.1875 -1.03125 6.992188 -0.675781 6.609375 -0.40625 C 6.222656 -0.132812 5.628906 0 4.828125 0 Z M 1.296875 -2.9375 L 4.578125 -2.9375 C 4.867188 -2.9375 5.148438 -2.976562 5.421875 -3.0625 C 5.703125 -3.15625 5.929688 -3.285156 6.109375 -3.453125 C 6.285156 -3.617188 6.375 -3.8125 6.375 -4.03125 C 6.375 -4.363281 6.226562 -4.625 5.9375 -4.8125 C 5.644531 -5.007812 5.226562 -5.109375 4.6875 -5.109375 L 1.296875 -5.109375 Z M 1.296875 -0.328125 L 4.84375 -0.328125 C 5.46875 -0.328125 5.945312 -0.4375 6.28125 -0.65625 C 6.613281 -0.875 6.78125 -1.15625 6.78125 -1.5 C 6.78125 -1.738281 6.691406 -1.941406 6.515625 -2.109375 C 6.335938 -2.273438 6.097656 -2.40625 5.796875 -2.5 C 5.492188 -2.59375 5.144531 -2.640625 4.75 -2.640625 L 1.296875 -2.640625 Z M 1.296875 -0.328125 "/></g></g></g><g fill="#a6a6a6" fill-opacity="0.4"><g transform="translate(108.786165, 22.984988)"><g><path d="M 0.890625 0 L 0.890625 -5.453125 L 4.34375 -5.453125 C 4.851562 -5.453125 5.285156 -5.382812 5.640625 -5.25 C 6.003906 -5.125 6.285156 -4.945312 6.484375 -4.71875 C 6.679688 -4.488281 6.78125 -4.21875 6.78125 -3.90625 C 6.78125 -3.644531 6.695312 -3.398438 6.53125 -3.171875 C 6.375 -2.941406 6.148438 -2.753906 5.859375 -2.609375 C 5.578125 -2.460938 5.226562 -2.378906 4.8125 -2.359375 L 6.84375 0 L 6.359375 0 L 4.375 -2.328125 L 1.28125 -2.328125 L 1.28125 0 Z M 1.28125 -2.625 L 4.3125 -2.625 C 4.71875 -2.625 5.070312 -2.675781 5.375 -2.78125 C 5.6875 -2.894531 5.925781 -3.046875 6.09375 -3.234375 C 6.269531 -3.429688 6.359375 -3.648438 6.359375 -3.890625 C 6.359375 -4.253906 6.175781 -4.546875 5.8125 -4.765625 C 5.457031 -4.992188 4.96875 -5.109375 4.34375 -5.109375 L 1.28125 -5.109375 Z M 1.28125 -2.625 "/></g></g></g><g fill="#a6a6a6" fill-opacity="0.4"><g transform="translate(117.771046, 22.984988)"><g><path d="M 0.921875 0 L 0.921875 -5.453125 L 1.359375 -5.453125 L 1.359375 0 Z M 0.921875 0 "/></g></g></g><g fill="#a6a6a6" fill-opacity="0.4"><g transform="translate(121.679545, 22.984988)"><g><path d="M 0.890625 0 L 0.890625 -5.453125 L 4.109375 -5.453125 C 4.648438 -5.453125 5.144531 -5.382812 5.59375 -5.25 C 6.039062 -5.113281 6.425781 -4.921875 6.75 -4.671875 C 7.070312 -4.429688 7.320312 -4.144531 7.5 -3.8125 C 7.675781 -3.488281 7.765625 -3.125 7.765625 -2.71875 C 7.765625 -2.320312 7.675781 -1.957031 7.5 -1.625 C 7.320312 -1.289062 7.070312 -1.003906 6.75 -0.765625 C 6.425781 -0.523438 6.039062 -0.335938 5.59375 -0.203125 C 5.144531 -0.0664062 4.648438 0 4.109375 0 Z M 1.296875 -0.34375 L 4.109375 -0.34375 C 4.554688 -0.34375 4.972656 -0.398438 5.359375 -0.515625 C 5.753906 -0.628906 6.101562 -0.789062 6.40625 -1 C 6.707031 -1.21875 6.941406 -1.472656 7.109375 -1.765625 C 7.273438 -2.054688 7.359375 -2.375 7.359375 -2.71875 C 7.359375 -3.070312 7.273438 -3.390625 7.109375 -3.671875 C 6.941406 -3.960938 6.707031 -4.21875 6.40625 -4.4375 C 6.101562 -4.65625 5.753906 -4.820312 5.359375 -4.9375 C 4.972656 -5.050781 4.554688 -5.109375 4.109375 -5.109375 L 1.296875 -5.109375 Z M 1.296875 -0.34375 "/></g></g></g><g fill="#a6a6a6" fill-opacity="0.4"><g transform="translate(131.67659, 22.984988)"><g><path d="M 4.453125 0.09375 C 3.921875 0.09375 3.421875 0.03125 2.953125 -0.09375 C 2.484375 -0.226562 2.070312 -0.414062 1.71875 -0.65625 C 1.375 -0.894531 1.101562 -1.179688 0.90625 -1.515625 C 0.707031 -1.859375 0.609375 -2.234375 0.609375 -2.640625 C 0.609375 -3.046875 0.707031 -3.421875 0.90625 -3.765625 C 1.101562 -4.109375 1.378906 -4.410156 1.734375 -4.671875 C 2.097656 -4.941406 2.519531 -5.148438 3 -5.296875 C 3.488281 -5.453125 4.007812 -5.53125 4.5625 -5.53125 C 5.09375 -5.53125 5.546875 -5.492188 5.921875 -5.421875 C 6.304688 -5.347656 6.632812 -5.25 6.90625 -5.125 C 7.175781 -5.007812 7.40625 -4.878906 7.59375 -4.734375 L 7.328125 -4.453125 C 7.160156 -4.585938 6.929688 -4.707031 6.640625 -4.8125 C 6.359375 -4.925781 6.039062 -5.015625 5.6875 -5.078125 C 5.332031 -5.148438 4.960938 -5.1875 4.578125 -5.1875 C 4.078125 -5.1875 3.609375 -5.125 3.171875 -5 C 2.742188 -4.875 2.367188 -4.691406 2.046875 -4.453125 C 1.734375 -4.222656 1.488281 -3.953125 1.3125 -3.640625 C 1.132812 -3.335938 1.046875 -3.003906 1.046875 -2.640625 C 1.046875 -2.265625 1.128906 -1.929688 1.296875 -1.640625 C 1.472656 -1.347656 1.71875 -1.097656 2.03125 -0.890625 C 2.34375 -0.679688 2.707031 -0.519531 3.125 -0.40625 C 3.539062 -0.300781 3.984375 -0.25 4.453125 -0.25 C 4.898438 -0.25 5.316406 -0.300781 5.703125 -0.40625 C 6.097656 -0.507812 6.441406 -0.660156 6.734375 -0.859375 C 7.023438 -1.066406 7.257812 -1.304688 7.4375 -1.578125 C 7.613281 -1.859375 7.710938 -2.175781 7.734375 -2.53125 L 4.703125 -2.53125 L 4.703125 -2.84375 L 9.0625 -2.84375 L 9.0625 -2.53125 L 8.15625 -2.53125 C 8.132812 -2.132812 8.019531 -1.773438 7.8125 -1.453125 C 7.613281 -1.128906 7.347656 -0.851562 7.015625 -0.625 C 6.679688 -0.394531 6.296875 -0.21875 5.859375 -0.09375 C 5.421875 0.03125 4.953125 0.09375 4.453125 0.09375 Z M 4.453125 0.09375 "/></g></g></g><g fill="#a6a6a6" fill-opacity="0.4"><g transform="translate(142.678007, 22.984988)"><g><path d="M 0.890625 0 L 0.890625 -5.453125 L 6.5625 -5.453125 L 6.5625 -5.109375 L 1.28125 -5.109375 L 1.28125 -2.9375 L 5.34375 -2.9375 L 5.34375 -2.625 L 1.28125 -2.625 L 1.28125 -0.34375 L 6.6875 -0.34375 L 6.6875 0 Z M 0.890625 0 "/></g></g></g><g fill="#a6a6a6" fill-opacity="1"><g transform="translate(12.847313, 22.640901)"><g><path d="M 0.890625 0 L 0.890625 -5.453125 L 1.28125 -5.453125 L 1.28125 -2.859375 L 7.015625 -2.859375 L 7.015625 -5.453125 L 7.390625 -5.453125 L 7.390625 0 L 7.015625 0 L 7.015625 -2.5 L 1.28125 -2.5 L 1.28125 0 Z M 0.890625 0 "/></g></g></g><g fill="#a6a6a6" fill-opacity="1"><g transform="translate(22.735358, 22.640901)"><g><path d="M 3.484375 0 L 3.484375 -2.21875 L 0.171875 -5.453125 L 0.6875 -5.453125 L 3.671875 -2.5625 L 3.734375 -2.5625 L 6.71875 -5.453125 L 7.234375 -5.453125 L 3.90625 -2.21875 L 3.90625 0 Z M 3.484375 0 "/></g></g></g><g fill="#a6a6a6" fill-opacity="1"><g transform="translate(31.735812, 22.640901)"><g><path d="M 0.890625 0 L 0.890625 -5.453125 L 4.65625 -5.453125 C 5.164062 -5.453125 5.597656 -5.375 5.953125 -5.21875 C 6.316406 -5.070312 6.597656 -4.867188 6.796875 -4.609375 C 6.992188 -4.359375 7.09375 -4.070312 7.09375 -3.75 C 7.09375 -3.425781 6.992188 -3.132812 6.796875 -2.875 C 6.597656 -2.613281 6.316406 -2.40625 5.953125 -2.25 C 5.597656 -2.09375 5.164062 -2.015625 4.65625 -2.015625 L 1.296875 -2.015625 L 1.296875 0 Z M 1.296875 -2.359375 L 4.671875 -2.359375 C 5.085938 -2.359375 5.445312 -2.421875 5.75 -2.546875 C 6.050781 -2.671875 6.28125 -2.835938 6.4375 -3.046875 C 6.601562 -3.253906 6.6875 -3.488281 6.6875 -3.75 C 6.6875 -4 6.601562 -4.226562 6.4375 -4.4375 C 6.28125 -4.644531 6.050781 -4.804688 5.75 -4.921875 C 5.445312 -5.035156 5.085938 -5.09375 4.671875 -5.09375 L 1.296875 -5.09375 Z M 1.296875 -2.359375 "/></g></g></g><g fill="#a6a6a6" fill-opacity="1"><g transform="translate(40.80634, 22.640901)"><g><path d="M 0.890625 0 L 0.890625 -5.453125 L 6.5625 -5.453125 L 6.5625 -5.109375 L 1.28125 -5.109375 L 1.28125 -2.9375 L 5.34375 -2.9375 L 5.34375 -2.625 L 1.28125 -2.625 L 1.28125 -0.34375 L 6.6875 -0.34375 L 6.6875 0 Z M 0.890625 0 "/></g></g></g><g fill="#a6a6a6" fill-opacity="1"><g transform="translate(49.713356, 22.640901)"><g><path d="M 0.890625 0 L 0.890625 -5.453125 L 4.34375 -5.453125 C 4.851562 -5.453125 5.285156 -5.382812 5.640625 -5.25 C 6.003906 -5.125 6.285156 -4.945312 6.484375 -4.71875 C 6.679688 -4.488281 6.78125 -4.21875 6.78125 -3.90625 C 6.78125 -3.644531 6.695312 -3.398438 6.53125 -3.171875 C 6.375 -2.941406 6.148438 -2.753906 5.859375 -2.609375 C 5.578125 -2.460938 5.226562 -2.378906 4.8125 -2.359375 L 6.84375 0 L 6.359375 0 L 4.375 -2.328125 L 1.28125 -2.328125 L 1.28125 0 Z M 1.28125 -2.625 L 4.3125 -2.625 C 4.71875 -2.625 5.070312 -2.675781 5.375 -2.78125 C 5.6875 -2.894531 5.925781 -3.046875 6.09375 -3.234375 C 6.269531 -3.429688 6.359375 -3.648438 6.359375 -3.890625 C 6.359375 -4.253906 6.175781 -4.546875 5.8125 -4.765625 C 5.457031 -4.992188 4.96875 -5.109375 4.34375 -5.109375 L 1.28125 -5.109375 Z M 1.28125 -2.625 "/></g></g></g><g fill="#a6a6a6" fill-opacity="1"><g transform="translate(58.698237, 22.640901)"><g><path d="M 0.890625 0 L 0.890625 -5.453125 L 1.296875 -5.453125 L 1.296875 -0.34375 L 6.421875 -0.34375 L 6.421875 0 Z M 0.890625 0 "/></g></g></g><g fill="#a6a6a6" fill-opacity="1"><g transform="translate(67.145896, 22.640901)"><g><path d="M 0.171875 0 L 3.875 -5.53125 L 3.953125 -5.53125 L 7.671875 0 L 7.203125 0 L 6.46875 -1.125 L 1.328125 -1.125 L 0.59375 0 Z M 1.546875 -1.421875 L 6.265625 -1.421875 L 3.9375 -4.953125 L 3.890625 -4.953125 Z M 1.546875 -1.421875 "/></g></g></g><g fill="#a6a6a6" fill-opacity="1"><g transform="translate(76.590145, 22.640901)"><g><path d="M 7.203125 0.09375 L 1.328125 -4.890625 L 1.28125 -4.890625 L 1.28125 0 L 0.890625 0 L 0.890625 -5.53125 L 1.078125 -5.53125 L 6.953125 -0.5625 L 7.015625 -0.5625 L 7.015625 -5.453125 L 7.390625 -5.453125 L 7.390625 0.09375 Z M 7.203125 0.09375 "/></g></g></g><g fill="#a6a6a6" fill-opacity="1"><g transform="translate(86.485971, 22.640901)"><g><path d="M 0.890625 0 L 0.890625 -5.453125 L 6.5625 -5.453125 L 6.5625 -5.109375 L 1.28125 -5.109375 L 1.28125 -2.9375 L 5.34375 -2.9375 L 5.34375 -2.625 L 1.28125 -2.625 L 1.28125 -0.34375 L 6.6875 -0.34375 L 6.6875 0 Z M 0.890625 0 "/></g></g></g><g fill="#a6a6a6" fill-opacity="1"><g transform="translate(95.392987, 22.640901)"><g/></g></g><g fill="#a6a6a6" fill-opacity="1"><g transform="translate(99.013401, 22.640901)"><g><path d="M 0.890625 0 L 0.890625 -5.453125 L 4.671875 -5.453125 C 5.378906 -5.453125 5.90625 -5.328125 6.25 -5.078125 C 6.59375 -4.828125 6.765625 -4.5 6.765625 -4.09375 C 6.765625 -3.8125 6.648438 -3.550781 6.421875 -3.3125 C 6.203125 -3.082031 5.910156 -2.929688 5.546875 -2.859375 L 5.546875 -2.828125 C 5.867188 -2.785156 6.15625 -2.695312 6.40625 -2.5625 C 6.65625 -2.4375 6.847656 -2.273438 6.984375 -2.078125 C 7.117188 -1.890625 7.1875 -1.6875 7.1875 -1.46875 C 7.1875 -1.03125 6.992188 -0.675781 6.609375 -0.40625 C 6.222656 -0.132812 5.628906 0 4.828125 0 Z M 1.296875 -2.9375 L 4.578125 -2.9375 C 4.867188 -2.9375 5.148438 -2.976562 5.421875 -3.0625 C 5.703125 -3.15625 5.929688 -3.285156 6.109375 -3.453125 C 6.285156 -3.617188 6.375 -3.8125 6.375 -4.03125 C 6.375 -4.363281 6.226562 -4.625 5.9375 -4.8125 C 5.644531 -5.007812 5.226562 -5.109375 4.6875 -5.109375 L 1.296875 -5.109375 Z M 1.296875 -0.328125 L 4.84375 -0.328125 C 5.46875 -0.328125 5.945312 -0.4375 6.28125 -0.65625 C 6.613281 -0.875 6.78125 -1.15625 6.78125 -1.5 C 6.78125 -1.738281 6.691406 -1.941406 6.515625 -2.109375 C 6.335938 -2.273438 6.097656 -2.40625 5.796875 -2.5 C 5.492188 -2.59375 5.144531 -2.640625 4.75 -2.640625 L 1.296875 -2.640625 Z M 1.296875 -0.328125 "/></g></g></g><g fill="#a6a6a6" fill-opacity="1"><g transform="translate(108.442077, 22.640901)"><g><path d="M 0.890625 0 L 0.890625 -5.453125 L 4.34375 -5.453125 C 4.851562 -5.453125 5.285156 -5.382812 5.640625 -5.25 C 6.003906 -5.125 6.285156 -4.945312 6.484375 -4.71875 C 6.679688 -4.488281 6.78125 -4.21875 6.78125 -3.90625 C 6.78125 -3.644531 6.695312 -3.398438 6.53125 -3.171875 C 6.375 -2.941406 6.148438 -2.753906 5.859375 -2.609375 C 5.578125 -2.460938 5.226562 -2.378906 4.8125 -2.359375 L 6.84375 0 L 6.359375 0 L 4.375 -2.328125 L 1.28125 -2.328125 L 1.28125 0 Z M 1.28125 -2.625 L 4.3125 -2.625 C 4.71875 -2.625 5.070312 -2.675781 5.375 -2.78125 C 5.6875 -2.894531 5.925781 -3.046875 6.09375 -3.234375 C 6.269531 -3.429688 6.359375 -3.648438 6.359375 -3.890625 C 6.359375 -4.253906 6.175781 -4.546875 5.8125 -4.765625 C 5.457031 -4.992188 4.96875 -5.109375 4.34375 -5.109375 L 1.28125 -5.109375 Z M 1.28125 -2.625 "/></g></g></g><g fill="#a6a6a6" fill-opacity="1"><g transform="translate(117.426959, 22.640901)"><g><path d="M 0.921875 0 L 0.921875 -5.453125 L 1.359375 -5.453125 L 1.359375 0 Z M 0.921875 0 "/></g></g></g><g fill="#a6a6a6" fill-opacity="1"><g transform="translate(121.335457, 22.640901)"><g><path d="M 0.890625 0 L 0.890625 -5.453125 L 4.109375 -5.453125 C 4.648438 -5.453125 5.144531 -5.382812 5.59375 -5.25 C 6.039062 -5.113281 6.425781 -4.921875 6.75 -4.671875 C 7.070312 -4.429688 7.320312 -4.144531 7.5 -3.8125 C 7.675781 -3.488281 7.765625 -3.125 7.765625 -2.71875 C 7.765625 -2.320312 7.675781 -1.957031 7.5 -1.625 C 7.320312 -1.289062 7.070312 -1.003906 6.75 -0.765625 C 6.425781 -0.523438 6.039062 -0.335938 5.59375 -0.203125 C 5.144531 -0.0664062 4.648438 0 4.109375 0 Z M 1.296875 -0.34375 L 4.109375 -0.34375 C 4.554688 -0.34375 4.972656 -0.398438 5.359375 -0.515625 C 5.753906 -0.628906 6.101562 -0.789062 6.40625 -1 C 6.707031 -1.21875 6.941406 -1.472656 7.109375 -1.765625 C 7.273438 -2.054688 7.359375 -2.375 7.359375 -2.71875 C 7.359375 -3.070312 7.273438 -3.390625 7.109375 -3.671875 C 6.941406 -3.960938 6.707031 -4.21875 6.40625 -4.4375 C 6.101562 -4.65625 5.753906 -4.820312 5.359375 -4.9375 C 4.972656 -5.050781 4.554688 -5.109375 4.109375 -5.109375 L 1.296875 -5.109375 Z M 1.296875 -0.34375 "/></g></g></g><g fill="#a6a6a6" fill-opacity="1"><g transform="translate(131.332503, 22.640901)"><g><path d="M 4.453125 0.09375 C 3.921875 0.09375 3.421875 0.03125 2.953125 -0.09375 C 2.484375 -0.226562 2.070312 -0.414062 1.71875 -0.65625 C 1.375 -0.894531 1.101562 -1.179688 0.90625 -1.515625 C 0.707031 -1.859375 0.609375 -2.234375 0.609375 -2.640625 C 0.609375 -3.046875 0.707031 -3.421875 0.90625 -3.765625 C 1.101562 -4.109375 1.378906 -4.410156 1.734375 -4.671875 C 2.097656 -4.941406 2.519531 -5.148438 3 -5.296875 C 3.488281 -5.453125 4.007812 -5.53125 4.5625 -5.53125 C 5.09375 -5.53125 5.546875 -5.492188 5.921875 -5.421875 C 6.304688 -5.347656 6.632812 -5.25 6.90625 -5.125 C 7.175781 -5.007812 7.40625 -4.878906 7.59375 -4.734375 L 7.328125 -4.453125 C 7.160156 -4.585938 6.929688 -4.707031 6.640625 -4.8125 C 6.359375 -4.925781 6.039062 -5.015625 5.6875 -5.078125 C 5.332031 -5.148438 4.960938 -5.1875 4.578125 -5.1875 C 4.078125 -5.1875 3.609375 -5.125 3.171875 -5 C 2.742188 -4.875 2.367188 -4.691406 2.046875 -4.453125 C 1.734375 -4.222656 1.488281 -3.953125 1.3125 -3.640625 C 1.132812 -3.335938 1.046875 -3.003906 1.046875 -2.640625 C 1.046875 -2.265625 1.128906 -1.929688 1.296875 -1.640625 C 1.472656 -1.347656 1.71875 -1.097656 2.03125 -0.890625 C 2.34375 -0.679688 2.707031 -0.519531 3.125 -0.40625 C 3.539062 -0.300781 3.984375 -0.25 4.453125 -0.25 C 4.898438 -0.25 5.316406 -0.300781 5.703125 -0.40625 C 6.097656 -0.507812 6.441406 -0.660156 6.734375 -0.859375 C 7.023438 -1.066406 7.257812 -1.304688 7.4375 -1.578125 C 7.613281 -1.859375 7.710938 -2.175781 7.734375 -2.53125 L 4.703125 -2.53125 L 4.703125 -2.84375 L 9.0625 -2.84375 L 9.0625 -2.53125 L 8.15625 -2.53125 C 8.132812 -2.132812 8.019531 -1.773438 7.8125 -1.453125 C 7.613281 -1.128906 7.347656 -0.851562 7.015625 -0.625 C 6.679688 -0.394531 6.296875 -0.21875 5.859375 -0.09375 C 5.421875 0.03125 4.953125 0.09375 4.453125 0.09375 Z M 4.453125 0.09375 "/></g></g></g><g fill="#a6a6a6" fill-opacity="1"><g transform="translate(142.33392, 22.640901)"><g><path d="M 0.890625 0 L 0.890625 -5.453125 L 6.5625 -5.453125 L 6.5625 -5.109375 L 1.28125 -5.109375 L 1.28125 -2.9375 L 5.34375 -2.9375 L 5.34375 -2.625 L 1.28125 -2.625 L 1.28125 -0.34375 L 6.6875 -0.34375 L 6.6875 0 Z M 0.890625 0 "/></g></g></g></svg>